<svg width="23" height="22" viewBox="0 0 23 22" fill="none" xmlns="http://www.w3.org/2000/svg">
<path fill-rule="evenodd" clip-rule="evenodd" d="M4.95697 0.345231C9.30569 -0.115077 13.6944 -0.115077 18.0431 0.345231C20.4189 0.598503 22.3342 2.38454 22.6132 4.6616C23.1289 8.87242 23.1289 13.1263 22.6132 17.3371C22.3342 19.6142 20.4189 21.4002 18.0443 21.6547C13.6952 22.1151 9.3061 22.1151 4.95697 21.6547C2.5812 21.4002 0.665821 19.6142 0.386834 17.3383C-0.128945 13.1271 -0.128945 8.87281 0.386834 4.6616C0.665821 2.38454 2.5812 0.598503 4.95697 0.345231ZM17.7553 3.8313C17.4235 3.8313 17.1053 3.95716 16.8707 4.18121C16.6361 4.40525 16.5043 4.70912 16.5043 5.02597C16.5043 5.34282 16.6361 5.64669 16.8707 5.87074C17.1053 6.09478 17.4235 6.22065 17.7553 6.22065C18.0871 6.22065 18.4054 6.09478 18.64 5.87074C18.8746 5.64669 19.0064 5.34282 19.0064 5.02597C19.0064 4.70912 18.8746 4.40525 18.64 4.18121C18.4054 3.95716 18.0871 3.8313 17.7553 3.8313ZM5.55748 10.9994C5.55748 9.49433 6.18357 8.05094 7.29801 6.98673C8.41246 5.92251 9.92397 5.32464 11.5 5.32464C13.0761 5.32464 14.5876 5.92251 15.702 6.98673C16.8165 8.05094 17.4426 9.49433 17.4426 10.9994C17.4426 12.5044 16.8165 13.9478 15.702 15.012C14.5876 16.0762 13.0761 16.6741 11.5 16.6741C9.92397 16.6741 8.41246 16.0762 7.29801 15.012C6.18357 13.9478 5.55748 12.5044 5.55748 10.9994Z" fill="white"/>
</svg>
