<svg width="25" height="26" viewBox="0 0 25 26" fill="none" xmlns="http://www.w3.org/2000/svg">
<path d="M12.411 0.459961C5.62049 0.459961 0.109375 5.97107 0.109375 12.7615C0.109375 19.552 5.62049 25.0631 12.411 25.0631C19.2014 25.0631 24.7125 19.552 24.7125 12.7615C24.7125 5.97107 19.2014 0.459961 12.411 0.459961ZM18.1189 8.82504C17.9344 10.7687 17.1348 15.4925 16.7288 17.6699C16.5566 18.5925 16.2122 18.9 15.8923 18.9369C15.1788 18.9985 14.6375 18.4695 13.9487 18.0143C12.8661 17.3008 12.251 16.858 11.2054 16.1691C9.98755 15.3695 10.7748 14.9266 11.476 14.2131C11.6606 14.0286 14.8098 11.1623 14.8713 10.904C14.8798 10.8649 14.8787 10.8243 14.868 10.7857C14.8572 10.7471 14.8373 10.7117 14.8098 10.6826C14.736 10.6211 14.6375 10.6457 14.5514 10.658C14.4407 10.6826 12.7185 11.8266 9.36017 14.0901C8.8681 14.4223 8.42525 14.5945 8.0316 14.5822C7.58874 14.5699 6.75223 14.3361 6.12485 14.127C5.34985 13.881 4.74707 13.7457 4.79628 13.3151C4.82088 13.0937 5.12842 12.8723 5.7066 12.6385C9.29866 11.0762 11.6852 10.0429 12.8784 9.55083C16.2983 8.12385 16.9995 7.87782 17.4669 7.87782C17.5653 7.87782 17.7991 7.90242 17.9467 8.02544C18.0697 8.12385 18.1066 8.25917 18.1189 8.35758C18.1066 8.43139 18.1312 8.65282 18.1189 8.82504Z" fill="white"/>
</svg>
