<svg width="25" height="26" viewBox="0 0 25 26" fill="none" xmlns="http://www.w3.org/2000/svg">
<path d="M12.411 0.460449C5.62049 0.460449 0.109375 5.97156 0.109375 12.762C0.109375 19.5525 5.62049 25.0636 12.411 25.0636C19.2014 25.0636 24.7125 19.5525 24.7125 12.762C24.7125 5.97156 19.2014 0.460449 12.411 0.460449ZM18.1189 8.82553C17.9344 10.7692 17.1348 15.493 16.7288 17.6704C16.5566 18.593 16.2122 18.9005 15.8923 18.9374C15.1788 18.9989 14.6375 18.47 13.9487 18.0148C12.8661 17.3013 12.251 16.8585 11.2054 16.1696C9.98755 15.37 10.7748 14.9271 11.476 14.2136C11.6606 14.0291 14.8098 11.1628 14.8713 10.9045C14.8798 10.8654 14.8787 10.8247 14.868 10.7862C14.8572 10.7476 14.8373 10.7122 14.8098 10.6831C14.736 10.6216 14.6375 10.6462 14.5514 10.6585C14.4407 10.6831 12.7185 11.8271 9.36017 14.0906C8.8681 14.4227 8.42525 14.595 8.0316 14.5827C7.58874 14.5704 6.75223 14.3366 6.12485 14.1275C5.34985 13.8815 4.74707 13.7462 4.79628 13.3156C4.82088 13.0942 5.12842 12.8727 5.7066 12.639C9.29866 11.0767 11.6852 10.0434 12.8784 9.55132C16.2983 8.12434 16.9995 7.8783 17.4669 7.8783C17.5653 7.8783 17.7991 7.90291 17.9467 8.02592C18.0697 8.12434 18.1066 8.25965 18.1189 8.35807C18.1066 8.43188 18.1312 8.65331 18.1189 8.82553Z" fill="#100E3A"/>
</svg>
