<svg width="25" height="26" viewBox="0 0 25 26" fill="none" xmlns="http://www.w3.org/2000/svg">
<path fill-rule="evenodd" clip-rule="evenodd" d="M18.3393 1.23284C14.469 0.367698 10.4554 0.367698 6.58511 1.23284L6.16809 1.32511C5.07942 1.56851 4.07954 2.10894 3.27951 2.88638C2.47949 3.66382 1.91065 4.64782 1.63618 5.72907C0.655127 9.59488 0.655127 13.6445 1.63618 17.5103C1.89793 18.5415 2.42767 19.4852 3.17171 20.2456C3.91574 21.0061 4.84761 21.5563 5.87285 21.8405L6.44487 25.2554C6.46313 25.3638 6.51013 25.4654 6.58097 25.5495C6.65181 25.6336 6.7439 25.6972 6.84766 25.7336C6.95141 25.77 7.06304 25.778 7.17091 25.7566C7.27878 25.7352 7.37894 25.6854 7.46098 25.6121L10.8205 22.6069C13.3425 22.7607 15.8735 22.5591 18.3393 22.0078L18.7575 21.9155C19.8462 21.6721 20.8461 21.1317 21.6461 20.3542C22.4461 19.5768 23.015 18.5928 23.2894 17.5115C24.2704 13.6457 24.2704 9.59612 23.2894 5.7303C23.0149 4.64889 22.4458 3.66478 21.6456 2.88733C20.8453 2.10988 19.8452 1.56953 18.7563 1.32634L18.3393 1.23284ZM7.62337 5.62943C7.39474 5.59615 7.16161 5.64217 6.96277 5.75983H6.94555C6.48424 6.03046 6.06844 6.37122 5.71416 6.77225C5.41892 7.113 5.259 7.45745 5.21717 7.78959C5.19257 7.98641 5.20979 8.1857 5.26761 8.37391L5.28975 8.38622C5.6219 9.36173 6.05491 10.3003 6.58388 11.1836C7.26594 12.4242 8.10529 13.5716 9.0811 14.5973L9.11063 14.6391L9.15737 14.6736L9.18567 14.7068L9.22011 14.7363C10.2494 15.7151 11.3995 16.5584 12.6424 17.2458C14.0632 18.0196 14.9256 18.3849 15.4435 18.5375V18.5449C15.5948 18.5916 15.7326 18.6125 15.8716 18.6125C16.3126 18.5799 16.7301 18.4006 17.0575 18.1032C17.4573 17.749 17.7955 17.3319 18.0588 16.8682V16.8595C18.3061 16.3921 18.2224 15.9517 17.8657 15.6528C17.1491 15.0267 16.3743 14.4705 15.5517 13.992C15.0006 13.6931 14.4409 13.874 14.2146 14.1766L13.7311 14.7867C13.4826 15.0893 13.0324 15.0475 13.0324 15.0475L13.0201 15.0549C9.66051 14.1975 8.76372 10.7961 8.76372 10.7961C8.76372 10.7961 8.7219 10.3336 9.03313 10.0974L9.63836 9.61022C9.92868 9.37403 10.1304 8.81554 9.8192 8.26443C9.34387 7.44116 8.78887 6.66655 8.16217 5.95173C8.02549 5.7835 7.8338 5.66893 7.6209 5.6282L7.62337 5.62943ZM13.2993 4.15078C13.1362 4.15078 12.9797 4.21558 12.8644 4.33093C12.749 4.44628 12.6842 4.60273 12.6842 4.76586C12.6842 4.92899 12.749 5.08544 12.8644 5.20079C12.9797 5.31614 13.1362 5.38094 13.2993 5.38094C14.8555 5.38094 16.1471 5.88899 17.1694 6.86328C17.6947 7.39594 18.1043 8.02701 18.3725 8.71836C18.6419 9.41094 18.7649 10.1503 18.7329 10.8908C18.7295 10.9716 18.7421 11.0522 18.7699 11.1282C18.7976 11.2041 18.8401 11.2738 18.8948 11.3333C19.0053 11.4535 19.159 11.5249 19.3222 11.5317C19.4853 11.5386 19.6445 11.4804 19.7647 11.3698C19.8849 11.2593 19.9562 11.1056 19.9631 10.9425C20.0012 10.0315 19.85 9.12257 19.519 8.27304C19.1865 7.41948 18.6824 6.64323 18.0379 5.99233L18.0256 5.98003C16.7573 4.76832 15.1519 4.15078 13.2993 4.15078ZM13.2575 6.17316C13.0944 6.17316 12.9379 6.23796 12.8226 6.35331C12.7072 6.46866 12.6424 6.62511 12.6424 6.78824C12.6424 6.95137 12.7072 7.10782 12.8226 7.22317C12.9379 7.33852 13.0944 7.40332 13.2575 7.40332H13.2784C14.4003 7.48328 15.2171 7.85725 15.7892 8.4711C16.3759 9.1034 16.6798 9.88947 16.6564 10.8613C16.6527 11.0244 16.7139 11.1824 16.8266 11.3004C16.9393 11.4184 17.0942 11.4868 17.2574 11.4905C17.4205 11.4943 17.5784 11.4331 17.6964 11.3204C17.8144 11.2077 17.8828 11.0527 17.8866 10.8896C17.9161 9.61391 17.5052 8.51292 16.6909 7.63459V7.63213C15.858 6.73903 14.7152 6.26665 13.3399 6.17439L13.319 6.17193L13.2575 6.17316ZM13.2341 8.23368C13.1518 8.22641 13.0689 8.23581 12.9903 8.26131C12.9117 8.28681 12.839 8.32788 12.7766 8.38208C12.7143 8.43628 12.6634 8.50249 12.6272 8.57676C12.591 8.65104 12.5701 8.73185 12.5658 8.81437C12.5615 8.89689 12.5739 8.97944 12.6022 9.05707C12.6305 9.13471 12.6742 9.20584 12.7306 9.26623C12.787 9.32662 12.855 9.37502 12.9305 9.40855C13.006 9.44208 13.0875 9.46004 13.1702 9.46138C13.6844 9.48844 14.0128 9.64344 14.2195 9.85133C14.4274 10.0605 14.5824 10.3963 14.6107 10.9216C14.6122 11.0041 14.6303 11.0855 14.664 11.1609C14.6977 11.2363 14.7461 11.3041 14.8066 11.3604C14.867 11.4166 14.9381 11.4601 15.0157 11.4883C15.0933 11.5165 15.1758 11.5287 15.2583 11.5243C15.3407 11.52 15.4214 11.499 15.4956 11.4628C15.5698 11.4266 15.6359 11.3758 15.69 11.3134C15.7442 11.2511 15.7852 11.1785 15.8107 11.1C15.8362 11.0215 15.8456 10.9386 15.8384 10.8564C15.799 10.1183 15.5677 9.4663 15.0941 8.98653C14.618 8.50677 13.9698 8.27304 13.2341 8.23368Z" fill="white"/>
</svg>
