<svg width="26" height="21" viewBox="0 0 26 21" fill="none" xmlns="http://www.w3.org/2000/svg">
<path d="M24.9785 3.99383C25.5407 6.18598 25.5407 10.7622 25.5407 10.7622C25.5407 10.7622 25.5407 15.3384 24.9785 17.5305C24.666 18.7422 23.752 19.6956 22.5944 20.0179C20.4921 20.6034 13.2391 20.6034 13.2391 20.6034C13.2391 20.6034 5.98976 20.6034 3.88373 20.0179C2.72123 19.6907 1.80845 18.7385 1.49968 17.5305C0.9375 15.3384 0.9375 10.7622 0.9375 10.7622C0.9375 10.7622 0.9375 6.18598 1.49968 3.99383C1.81214 2.78213 2.72615 1.82876 3.88373 1.50645C5.98976 0.920898 13.2391 0.920898 13.2391 0.920898C13.2391 0.920898 20.4921 0.920898 22.5944 1.50645C23.7569 1.83368 24.6697 2.78582 24.9785 3.99383ZM10.7788 15.0677L18.1597 10.7622L10.7788 6.45661V15.0677Z" fill="#100E3A"/>
</svg>
